<?xml version="1.0" encoding="utf-8"?>
<!-- Svg Vector Icons : http://www.onlinewebfonts.com/icon -->
<!DOCTYPE svg PUBLIC "-//W3C//DTD SVG 1.1//EN" "http://www.w3.org/Graphics/SVG/1.1/DTD/svg11.dtd">
<svg version="1.1" xmlns="http://www.w3.org/2000/svg" xmlns:xlink="http://www.w3.org/1999/xlink" x="0px" y="0px" viewBox="0 0 1000 1000" enable-background="new 0 0 1000 1000" xml:space="preserve">
<metadata> Svg Vector Icons : http://www.onlinewebfonts.com/icon </metadata>
<g><path d="M214.2,795.3C57.7,769.2,8.3,641.9,10,580.8c1.1-108.9,62.3-185.5,159.6-199c15.5-2.2,19.3-10,20.7-12.9c4-8.3,6.5-18.9,9.1-30.1c3.1-13.4,6.6-28.5,13.6-43.5c11.7-24.9,28.8-47.9,49.4-66.5c41.6-37.4,97-57.4,151.1-54.1c78.5,4.2,138.1,37,168,92.1l5.6,10.9c4.8,9.5,9.2,23.6,14.4,28.1c2.2,2,11.1,6.8,18.8,6.8h11.6c14.1,0,28.8-2.7,43.9,1.5c27.2,7.4,53.6,18.4,76.1,36.5c7.1,5.9,11.1,7.9,13.2,8.8c5.1,2.2,15.4,1.3,25,1.3c11.6-0.1,24.2-0.6,37.5,2.3c25.1,5.6,46.5,13.3,65.5,24c43.2,24.2,79.3,73,96.8,118.3l-69.3,1.6c-11.8-30.5-31.7-44-61-60.5c-13-7.4-28.4-13-46.8-17c-5.5-1.2-13.5-1.2-21.9-1c-15.3-0.2-34.5,0.3-53.1-7.6c-11.1-4.9-19.3-11.7-25.9-17.1c-18.1-14.6-35.8-18.6-54.1-23.6c-9.6-2.7-18.8,0.8-27.1,0.8h-8.9c-17.1,0-43.2-4.2-65.4-23.9c-15.1-13.3-23.5-32.6-30.3-46.1l-4.6-10.3c-24.4-45.1-80.4-55.4-111.6-57.2c-36.3-1.9-73.5,11.1-101.6,36.4c-13.9,12.6-25.5,27.9-33.4,44.7c-3.9,8.3-6.3,18.6-8.8,29.7c-3.2,13.8-6.8,29.4-14.3,44.7c-13.7,28-39.5,46-72.7,50.5c-89.9,12.6-100.4,97-100.8,132.7c-0.2,12.5-3.6,117.8,130,140.1L214.2,795.3z"/><path d="M369.9,597.1c-12.9,0-24.8,2.1-35.6,6.4c-10.9,4.3-20.3,10.5-28.1,18.6c-7.9,8.1-13.9,18.2-18.4,30.2c-4.4,11.9-6.6,25.5-6.6,40.9c0,15.3,2,28.7,6,40.2s9.8,21.2,17.2,29c7.4,7.7,16.6,13.5,27.4,17.5c10.8,4,23,5.9,36.7,5.9c9.8,0,19.8-0.8,30-2.3c10.2-1.5,19.7-3.8,28.6-6.8v40.9c-9,2.5-18.8,4.6-29.2,6.1c-10.4,1.4-21.3,2.3-32.5,2.3c-21.9,0-41.2-3.1-57.9-9.4c-16.7-6.3-30.5-15.2-41.7-26.6c-11.2-11.4-19.6-25.1-25.2-41c-5.6-16-8.5-33.5-8.5-52.7c0-19.7,3-38.1,9-55c6-16.9,14.7-31.6,25.9-44c11.4-12.4,25.5-22.1,42.5-29.2c17-7.1,36.2-10.7,57.6-10.9c11,0,21.4,0.8,31.2,2.3c9.8,1.5,18.6,3.6,26.5,6.3v40.3c-10.3-3.3-19.9-5.5-28.8-6.8S378.4,597.1,369.9,597.1z"/><path d="M667.1,639.6c0,18.1-4.9,33.4-15,46c-10,12.6-25.5,21.9-46.4,27.9v0.8l77.1,106.5H626l-70.4-100.2H523v100.2h-47.4v-259h78.7c13,0,25.2,0.8,36.4,2.2c11.2,1.5,20.8,3.8,28.7,6.7c15.2,5.8,27,14.4,35.2,25.8C663.1,608,667.1,622.3,667.1,639.6z M546.4,680.9c10.9,0,20.1-0.5,27.5-1.4c7.6-1,14-2.4,19.1-4.3c9.6-3.7,16.1-8.6,19.9-14.8c3.8-6.3,5.5-13.5,5.5-21.6c0-7-1.4-13.1-4.3-18.5s-7.8-9.7-14.7-12.8c-4.5-2-10.2-3.6-17.1-4.5c-6.8-1-15.4-1.4-25.3-1.4H523v79.3H546.4z"/><path d="M857.6,751.3c5.7-20.4,12.8-42.3,21.1-65.6l44.7-123.8H990v258.9h-47.4V689.6c0-19.2,0.8-41.5,2.3-66.9h-1.7c-2.2,7.3-4.8,15.6-7.7,24.8c-3,9.1-6.1,18.2-9.3,27l-53.6,146.3l-30.7,0l-53.6-146.3c-3.2-8.9-6.4-18-9.3-27c-3-9.2-5.5-17.5-7.7-24.8h-1.8c1.5,23.9,2.3,46.2,2.3,66.8v131.4h-47.4V561.8h66.2l44.7,123.3c7.5,20.5,14.5,42.5,21.2,66.2H857.6z"/></g>
</svg>